<svg xmlns="http://www.w3.org/2000/svg" width="602" height="311.919" viewBox="0 0 602 311.919">
  <g>
    <path d="M294.172,186.713v-.023c1.108,0,2.209,0,3.294-.019v-.253c-4.149-3.173-6.414-5.9-6.577-16.848V124.079c6.341-20.412,30.166-42.395,40.688-42.395,4.825,0,8.193,2.738,9.905,7.53a29.063,29.063,0,0,1,1,9.662,39.994,39.994,0,0,0,10.009-2q.7-.218,1.4-.468c.192-.069.382-.132.574-.206a26.608,26.608,0,0,0,5.956-3.072H360.4a23.862,23.862,0,0,0,7.8-7.9h.011a11.982,11.982,0,0,0,1.535-8.44h-.014a13.311,13.311,0,0,0-2.4-5.319L367.2,71.3c-.343-.44-.587-.7-.587-.7h0c-2.659-2.9-7.184-4.865-13.809-4.865-13.27,0-36.561,11.65-54.072,37.974-.406.61-.816,1.206-1.215,1.831-.3.448-.581.9-.866,1.35-.936,1.507-1.841,3.073-2.733,4.67-.156.286-.331.548-.489.837l.088-.106c-.964,1.842-1.863,3.692-2.616,5.553V105.821c-7.478,7.61-22.693,11.666-31.187,11.794a22.46,22.46,0,0,1,3.3,13.818v35.5c0,8.875.379,11.918-3.3,19.78Z" fill="#f5c2cb" stroke="#f5c2cb" stroke-linejoin="round" stroke-width="0.78"/>
    <path d="M342.778,105.035v19.044a19.081,19.081,0,0,0-15.6-7.606c-17.369,0-30.176,15.215-30.176,33.979,0,30.174,29.923,42.472,56.929,47.425,26.751,4.943,51.094,14.453,55.278,39.808a14.785,14.785,0,0,0,15.213-14.345q.013-.434,0-.866c0-20.922-29.032-25.232-51.729-26.881-25.609-1.9-49.064-4.184-49.064-41.2,0-14.833,3.675-32.583,11.544-32.583,2.537,0,5.2,1.9,7.607,5.451v59.209h31.189c-3.3-7.859-3.3-10.9-3.3-19.78V93.943C363.121,101.077,352.372,104.454,342.778,105.035Z" fill="#f5c2cb" stroke="#f5c2cb" stroke-linejoin="round" stroke-width="0.78"/>
    <path d="M441.537,181.9a22.157,22.157,0,0,1,8.892-1.532,13.822,13.822,0,0,1,3.871.955c.1.039.2.073.3.117a13.478,13.478,0,0,1,2.251,1.2s-3.767-3.972-4.282-17.988V117.613a71.466,71.466,0,0,1-31.445,7.733,22.057,22.057,0,0,1,3.549,14.075V148.3c-3.423,14.962-9.633,23.076-13.947,23.076-2.914,0-4.942-3.3-4.942-10.523V117.613a69.259,69.259,0,0,1-27.893,7.559V136.6c.029,1.134,0,2.108,0,2.808V155.9c0,16.357,1.266,32.586,17.748,32.586,14.708,0,25.1-21.175,29.034-35.121v19.272a22.277,22.277,0,0,0,.989,7.176A7.163,7.163,0,0,0,429.7,184.4c.05.017.1.04.156.056l.114.036C432.2,185.189,434.723,184.359,441.537,181.9Z" fill="#f5c2cb" stroke="#f5c2cb" stroke-linejoin="round" stroke-width="0.78"/>
    <path d="M596.092,86.3c-.129-9.889-8.622-15.087-16.737-15.087S563.38,76.029,563.38,86.3a10.479,10.479,0,0,0,6.212,9.516c-.252-5.46,3.549-8.5,7.1-8.5s7.1,2.791,7.1,8.875c0,8.494-13.185,21.427-37.657,21.173V103.562l.056-7.824.011-1.4.028-4,.065-4.7c0-.353-.015-.684-.023-1.024v-.146c-.1-4.016-.342-7.219-.624-9.64h0c-.058-.51-.119-.987-.178-1.43-2.028-12.621-8.755-35.859-31.222-50.832Q492.789,8.255,459.925,8.113V8.1H459a231.128,231.128,0,0,0-38.136,3.715C364.369,21.827,316.478,49.25,316.478,49.25h0c-49.937,25.416-95.59,54.385-143.418,75.97v-30.3h-1.269c-2.661,15.087-19.4,21.684-32.2,22.7,3.423,2.663,5.577,9,5.577,14.959v4.195q-9.729,3.646-19.656,6.758c-11.034-15.086-26.775-26.677-26.521-38.973.253-6.21,4.184-9.382,8.493-9.382,5.328,0,10.271,4.184,10.271,11.544a9.2,9.2,0,0,1-2.917,6.975,10.619,10.619,0,0,0,8.622,4.056c5.453,0,11.158-3.675,11.031-9.889,0-9.506-12.425-14.453-25.865-14.453-16.355,0-34.232,7.227-34.232,23.076,0,11.764,7.8,23.027,16.122,34.476-40.517,2.434-65.574-21.16-73-48.27C8.42,69.527,30.983,41.222,55.089,34.609c16.924-4.64,34.976.859,43.808,23.027,4.163,11.155,11.208,14.752,16.849,13.2,5.126-1.4,9.2-8.667,6.539-18.385-7.522-27.445-32.511-34.114-56.1-27.649C35.414,33.242,5.826,64.093,16.639,103.542,24.4,131.87,50.491,156.5,92.456,153.619c8.831,12.115,17.628,24.492,17.809,37.908.127,11.791-9.89,19.271-21.046,19.271-13.059,0-23.712-9.129-23.712-21.046,0-8.242,5.324-12.806,11.283-12.806,5.325,0,11.03,4.184,10.777,12.553a19.684,19.684,0,0,0,4.945-12.808c0-9.761-7.987-18.383-19.779-18.383-11.917,0-23.713,7.989-23.713,22.822,0,18.764,18,31.824,39.313,31.824C111.407,212.574,136,197.1,136,171.5c0-9.647-3.667-17.965-8.694-25.419q9.019-2.844,17.858-6.137v37.267c0,18.764,12.552,32.078,29.542,32.078,12.168,0,22.06-4.439,35.5-4.439,13.692,0,20.28,8.5,20.28,16.863a16.4,16.4,0,0,1-3.8,10.4c13.564,5.323,29.411-.507,29.411-15.6,0-10.524-9-21.934-27.257-21.934-13.694,0-31.57,10.268-43.489,10.268-7.352,0-12.3-4.184-12.3-16.354V128.377c56.122-25.45,108.763-61.465,168.622-89.784,79.3-33.13,137.138-38.221,171.9-15.054,20.548,13.687,27.727,34.426,30.236,47.253.041.268,2.652,18.112.053,28.285-.156.624-.34,1.2-.538,1.76-.041.12-.08.243-.12.362-4.056,11.729-11.493,16.558-20.034,18.111a57.956,57.956,0,0,1-15.4-.035q-1.105-.178-2.152-.331h-.036l-.2-.03c-2.9-.421-5.418-.7-7.332-.886l-.115-.011c-2.312-.221-3.7-.3-3.7-.3h-.312c-1.042-.042-2.036-.056-3-.053-.29,0-.577,0-.86.009h-.14c-.445,0-.878.02-1.306.038l-.271.012q-2.03.088-3.793.286h0a2.038,2.038,0,0,0-.227.029c-.072.008-.156.022-.228.03-.492.056-.978.121-1.462.193-.3.044-.605.089-.894.138a41.123,41.123,0,0,0-5.628,1.319c-.71.227-1.284.436-1.741.615s-.748.312-.955.406c-1.072.418-2.141.839-3.12,1.326a35.569,35.569,0,0,0-3.835,2.184A24.961,24.961,0,0,0,460,130.2a14.253,14.253,0,0,0-1.572,2.7c-.036.079-.081.156-.112.24-.013.029-.03.059-.041.087a18.66,18.66,0,0,0-1.182,6.014c-.013.273-.025.545-.029.814,0,.312.015.607.021.913,0,.042-.01.078-.01.12,0,.166.019.329.022.5,0,.193,0,.4.013.586.009.138,0,.261.009.4h.017a.5.5,0,0,0,.01.121,28.86,28.86,0,0,0,.51,3.886c.081.4.156.81.254,1.214.028.122.051.223.076.323.1.4.166.647.166.647l.014-.015c5.928,21.84,34.395,42.6,34.281,67.025,0,.228-.034.441-.043.666a17.364,17.364,0,0,1-6.389,12.926,23.746,23.746,0,0,1-15.882,5.045,26.256,26.256,0,0,1-15.973-5.494,19.3,19.3,0,0,1-7.228-14.794,15.869,15.869,0,0,1,1.084-5.883c1.841-4.6,6-7.619,12.228-6.793a17.073,17.073,0,0,0-.145-5.651,12.352,12.352,0,0,0-.882-2.722,10.826,10.826,0,0,0-10.13-6.207,18.643,18.643,0,0,0-13.7,5.577,16.921,16.921,0,0,0-3.56,5.979,20.67,20.67,0,0,0-1.123,6.827c-.128,14.58,13.059,31.949,38.542,31.949,22.109,0,46.347-13.97,49.06-37.657a38.892,38.892,0,0,0,.26-4.435c0-28.02-37.021-51.6-36.642-66.311a11.106,11.106,0,0,1,1.114-4.736c.06-.12.12-.24.184-.356a8.646,8.646,0,0,1,.807-1.223l.05-.061a8.223,8.223,0,0,1,.869-.872,9.061,9.061,0,0,1,4.165-2.008c.253-.04.5-.109.757-.128.226-.028.4-.042.552-.051h.162c11.437-.552,27.536,7.086,27.536,21.232v23.712c0,13.821,10.777,22.443,32.711,22.443v-.379c-3.551-3.172-4.817-10.019-4.817-19.4l.124-46.4C570.354,120.151,596.467,107.091,596.092,86.3Z" fill="#f5c2cb" stroke="#f5c2cb" stroke-linejoin="round" stroke-width="0.78"/>
    <path d="M446.62,40.974c-6.465-1.314-7.889-2.726-9.217-9.134a.274.274,0,0,0-.539,0c-1.327,6.408-2.752,7.82-9.216,9.134a.273.273,0,0,0,0,.538c6.464,1.313,7.889,2.747,9.216,9.135a.274.274,0,0,0,.539,0c1.328-6.388,2.752-7.822,9.217-9.135a.273.273,0,0,0,0-.538Z" fill="#f5c2cb" stroke="#f5c2cb" stroke-linejoin="round" stroke-width="0.78"/>
    <path d="M473.521,73.686c4.6,11.243.468,11.245,5.051,0a2.773,2.773,0,0,1,1.512-1.5c11.189-4.482,11.309-.582.423-4.837A3.777,3.777,0,0,1,478.59,65.7c-4.564-11.219-.468-11.244-5.069,0a2.778,2.778,0,0,1-1.509,1.5c-11.332,4.544-11.332.449,0,4.992A2.773,2.773,0,0,1,473.521,73.686Z" fill="#f5c2cb" stroke="#f5c2cb" stroke-linejoin="round" stroke-width="0.78"/>
    <path d="M436.681,86.881a.189.189,0,0,0-.373,0c-.9,4.375-1.9,5.346-6.309,6.24a.2.2,0,0,0,0,.385c4.412.892,5.407,1.864,6.309,6.24a.189.189,0,0,0,.373,0c.9-4.368,1.894-5.346,6.307-6.24a.2.2,0,0,0,0-.385C438.575,92.224,437.581,91.249,436.681,86.881Z" fill="#f5c2cb" stroke="#f5c2cb" stroke-linejoin="round" stroke-width="0.78"/>
    <path d="M142.442,234.531c-5.761-23.282-1.166-24.223-6.091-2.819a4.656,4.656,0,0,1-3.5,3.482c-20.708,4.68-20.708.7,0,5.382a4.658,4.658,0,0,1,3.5,3.482c4.716,20.485.7,20.483,5.417,0a4.656,4.656,0,0,1,3.494-3.482C166.855,235.687,165.915,240.244,142.442,234.531Z" fill="#f5c2cb" stroke="#f5c2cb" stroke-linejoin="round" stroke-width="0.78"/>
    <path d="M168.347,278.655c-5.176-12.042-.936-12.629-5.215-1.76a4.383,4.383,0,0,1-2.5,2.473c-10.4,4.014-10.4.432,0,4.444a4.386,4.386,0,0,1,2.5,2.473c4.056,10.312.45,10.313,4.489,0a4.378,4.378,0,0,1,2.5-2.477C181.081,279.585,180.492,283.787,168.347,278.655Z" fill="#f5c2cb" stroke="#f5c2cb" stroke-linejoin="round" stroke-width="0.78"/>
    <path d="M153.409,71.491c1.4-11.722,2.526-12.858,14.353-14.231-11.827-1.393-12.949-2.508-14.353-14.23-1.4,11.722-2.53,12.837-14.352,14.23C150.879,58.633,152,59.769,153.409,71.491Z" fill="#f5c2cb" stroke="#f5c2cb" stroke-linejoin="round" stroke-width="0.78"/>
    <path d="M197.589,248.606c-.312-1.147-.77-2.535-1.419-4.244h-.1c-.649,1.709-1.113,3.1-1.419,4.244a2.724,2.724,0,0,1-1.928,1.928c-1.167.312-2.574.78-4.3,1.432v.079c1.729.651,3.136,1.124,4.3,1.431a2.726,2.726,0,0,1,1.928,1.928c.312,1.147.77,2.535,1.419,4.245h.1c.649-1.716,1.114-3.1,1.419-4.245a2.726,2.726,0,0,1,1.929-1.928c1.167-.312,2.572-.78,4.3-1.431v-.079c-1.729-.651-3.134-1.123-4.3-1.432A2.724,2.724,0,0,1,197.589,248.606Z" fill="#f5c2cb" stroke="#f5c2cb" stroke-linejoin="round" stroke-width="0.78"/>
    <path d="M188.727,83.58c.312,1.109.755,2.438,1.368,4.056h.1c.614-1.615,1.063-2.944,1.369-4.056a3.083,3.083,0,0,1,2.168-2.169c1.13-.312,2.477-.766,4.114-1.38v-.08c-1.637-.616-2.984-1.073-4.114-1.381a3.088,3.088,0,0,1-2.168-2.17c-.312-1.109-.755-2.436-1.368-4.056h-.1c-.613,1.616-1.062,2.944-1.368,4.056a3.087,3.087,0,0,1-2.17,2.17c-1.128.312-2.476.765-4.111,1.381v.08c1.635.614,2.983,1.071,4.111,1.38A3.084,3.084,0,0,1,188.727,83.58Z" fill="#f5c2cb" stroke="#f5c2cb" stroke-linejoin="round" stroke-width="0.78"/>
    <path d="M296.054,221.129a84.6,84.6,0,0,0-39.169-33.748l.02-.021s-.142-.046-.337-.118-.409-.169-.691-.3a7.477,7.477,0,0,1-4.312-5.5c-.114-1.56-.12-3.506-.12-6.27v-35.5c0-15.6-17.37-23.329-33.725-23.329-14.327,0-27.641,5.833-27.641,17.492,0,6.844,5.958,9.762,12.425,9.762,4.692,0,9.516-1.9,11.918-5.7a10.581,10.581,0,0,1-5.071-9.13,10.267,10.267,0,0,1,10-10.526q.322-.007.645,0a9.359,9.359,0,0,1,9.764,8.938c.012.274.013.549,0,.823,0,13.187-12.425,17.245-24.976,21.046-12.932,3.805-25.359,7.861-25.359,21.429,0,11.411,11.032,17.876,22.821,17.876,6.176,0,13.343-2.666,21.529-4.3a49.612,49.612,0,0,1,20.636,1.437q1.46.4,2.975.911c.273.092.546.183.819.278a87.383,87.383,0,0,1,15.193,6.959,86,86,0,0,1,31.455,31.614c7.539,13.224,11.907,28.847,10.129,44.122-2.245,19.278-16.518,37.775-37.909,34.383a31.411,31.411,0,0,1-23.1-16.884c-.993-3.12-.078-6.6,3.351-9.638,7.9-6.984,19.065-3.452,25.46-9.109,5.265-4.656,6.437-12.168.795-18.8-5.545-6.269-15.809-9.032-26.59.5A27.779,27.779,0,0,0,238,265.373l-.036.022s-4.3,16.608,7.421,29.5l-.019-.052a30.593,30.593,0,0,0,2.092,2.315c9.456,9.348,22.281,10.867,33.589,6.775a3.833,3.833,0,0,0,.468-.156q.7-.273,1.4-.572c.264-.112.531-.236.8-.356.577-.259,1.15-.527,1.716-.816l.35-.174q1.134-.6,2.235-1.27c.033-.021.067-.036.1-.056l-.039.02.081-.05-.042.03c.133-.075.254-.156.385-.237.086-.05.167-.105.253-.157a29.743,29.743,0,0,0,4.591-3.358c.08-.067.156-.123.237-.191a35.392,35.392,0,0,0,5.6-6.21c.42-.576.8-1.119,1.139-1.618.226-.337.455-.674.672-1.015s.409-.643.557-.885c.268-.437.418-.7.418-.7l-.086.1a44.968,44.968,0,0,0,5.131-14,54.426,54.426,0,0,0-.791-25.887A85.087,85.087,0,0,0,296.054,221.129Zm-72.5-41.427c-7.226.468-16.736-2.349-17.369-13.386-.381-10.921,9.516-17.259,17.369-22.658Z" fill="#f5c2cb" stroke="#f5c2cb" stroke-linejoin="round" stroke-width="0.78"/>
    <g>
      <path d="M319.381,259.05v14.185a10.34,10.34,0,0,1-.936,5.674h8.438a11.423,11.423,0,0,1-.945-5.674V266.4h3.018a6.947,6.947,0,0,1,5.674,3.054v-6.62a6.942,6.942,0,0,1-5.674,3.057h-3.018V254.033h1.56c2.546,0,4.436.691,8.182,4.875l2.8-5.529H318.437A10.333,10.333,0,0,1,319.381,259.05Z" fill="#f5c2cb" stroke="#f5c2cb" stroke-linejoin="round" stroke-width="0.78"/>
      <path d="M360.4,278.218V259.05a11.4,11.4,0,0,1,.947-5.672H352.9a10.328,10.328,0,0,1,.947,5.672v14.185a10.333,10.333,0,0,1-.947,5.674h18.763l1.418-6.365c-2.364,2.145-6.875,5.674-9.966,5.674Z" fill="#f5c2cb" stroke="#f5c2cb" stroke-linejoin="round" stroke-width="0.78"/>
      <path d="M397.563,252.758c-9.347,0-14.475,6.875-14.475,13.6,0,6.693,5.128,13.167,14.475,13.167S412,273.053,412,266.36C411.994,259.633,406.9,252.758,397.563,252.758Zm0,26.224c-4.546,0-6.839-6.221-6.839-12.731,0-6.472,2.293-12.948,6.839-12.948s6.836,6.474,6.836,12.948S402.1,278.982,397.563,278.982Z" fill="#f5c2cb" stroke="#f5c2cb" stroke-linejoin="round" stroke-width="0.78"/>
      <path d="M473.782,258.4l2.51-5.018H456.947a10.328,10.328,0,0,1,.947,5.672v14.185a10.333,10.333,0,0,1-.947,5.674h19.167l-1.56-5.274a10.324,10.324,0,0,1-9.2,4.766h-.91V266.44h2.328a6.975,6.975,0,0,1,5.677,2.975v-6.583a6.973,6.973,0,0,1-5.676,2.984h-2.327V253.994A11.36,11.36,0,0,1,473.782,258.4Z" fill="#f5c2cb" stroke="#f5c2cb" stroke-linejoin="round" stroke-width="0.78"/>
      <path d="M532.679,256.705a3.5,3.5,0,0,1,3.667-3.319c.05,0,.1.006.152.01,3.418,0,6.619,2.545,7.346,7.454l.582-.034V255.25a13.119,13.119,0,0,0-8.256-2.51c-4.728,0-9.455,2.291-9.455,6.585,0,6.91,13.056,11.417,13.274,16.364.072,2.074-1.491,2.985-3.276,2.985-2.911,0-6.4-2.808-8.184-6.73l-2.546,2.291a9.619,9.619,0,0,0,9.237,5.3c5.2,0,10.184-2.365,10.184-7.165C545.482,265.87,532.679,262.452,532.679,256.705Z" fill="#f5c2cb" stroke="#f5c2cb" stroke-linejoin="round" stroke-width="0.78"/>
      <path d="M416.865,257.184a16.058,16.058,0,0,0-2.792-3.806h8.048a2.1,2.1,0,0,0-.106,2.1l6.78,16.645,3.88-8.667-1.306-3.411c-1.629-4.095-2.25-5.11-3.7-6.6h7.506a10.321,10.321,0,0,0,.649,3.734l5.333,14.579,4.524-11.785a10.294,10.294,0,0,0,.294-6.528h4.1a15.477,15.477,0,0,0-3.446,5.616L438.984,278.9h-.328l-5.764-14.8-6.49,14.8h-.367Z" fill="#f5c2cb" stroke="#f5c2cb" stroke-linejoin="round" stroke-width="0.78"/>
      <path d="M490.483,273.235V259.052a10.343,10.343,0,0,0-.945-5.674h12.911c4.836,0,7.307,3.092,7.307,6.182,0,2.808-2.108,5.638-6.364,5.928v.111c6.074,0,6.654,6.981,7.528,9.817a6.923,6.923,0,0,0,1.856,3.492l-3.93-.074c-5.635-.036-1.781-12.91-9.383-12.91h-3.891v7.311a11.4,11.4,0,0,0,.948,5.673h-6.982A10.341,10.341,0,0,0,490.483,273.235Zm8.435-7.965a5.822,5.822,0,0,0,6.139-5.487c.006-.111.009-.221.009-.332,0-2.8-2.037-5.563-6.366-5.563h-3.12v11.421Z" fill="#f5c2cb" stroke="#f5c2cb" stroke-linejoin="round" stroke-width="0.78"/>
    </g>
  </g>
  <g>
    <path d="M295.165,184.679l-.01-.024c1.109,0,2.211,0,3.3-.018v-.255c-4.15-3.174-6.413-5.9-6.577-16.848V122.045c6.341-20.413,30.166-42.395,40.689-42.395,4.825,0,8.193,2.738,9.9,7.53a29.06,29.06,0,0,1,1,9.661,39.948,39.948,0,0,0,10.009-2q.7-.219,1.4-.468c.192-.069.382-.133.574-.206a26.608,26.608,0,0,0,5.956-3.072h-.025a23.875,23.875,0,0,0,7.8-7.9l.011.008a12,12,0,0,0,1.535-8.44h-.014a13.343,13.343,0,0,0-2.4-5.32l-.13-.168c-.343-.44-.586-.7-.586-.7h0c-2.66-2.905-7.184-4.866-13.81-4.866-13.269,0-36.56,11.65-54.072,37.974-.405.609-.816,1.2-1.215,1.83-.295.45-.58.9-.866,1.351-.936,1.507-1.841,3.074-2.733,4.671-.156.285-.331.548-.488.836l.087-.106c-.964,1.842-1.863,3.693-2.616,5.552V103.787c-7.477,7.609-22.694,11.666-31.187,11.793A22.465,22.465,0,0,1,264,129.4v35.5c0,8.874.379,11.917-3.3,19.78Z" fill="#f4d3d6"/>
    <path d="M343.77,103v19.045a19.081,19.081,0,0,0-15.6-7.606c-17.369,0-30.176,15.214-30.176,33.978,0,30.175,29.923,42.472,56.929,47.425,26.751,4.943,51.094,14.452,55.278,39.809A14.786,14.786,0,0,0,425.414,221.3q.014-.432,0-.864c0-20.92-29.032-25.231-51.728-26.88-25.61-1.9-49.065-4.184-49.065-41.2,0-14.832,3.675-32.582,11.536-32.582,2.537,0,5.2,1.9,7.607,5.45v59.21h31.19c-3.3-7.861-3.3-10.9-3.3-19.78V91.909C364.113,99.049,353.365,102.42,343.77,103Z" fill="#f4d3d6"/>
    <path d="M442.53,179.868a22.134,22.134,0,0,1,8.892-1.532,13.787,13.787,0,0,1,3.87.954c.1.039.2.074.3.116a13.508,13.508,0,0,1,2.249,1.2s-3.766-3.972-4.281-17.989v-47.03a71.466,71.466,0,0,1-31.442,7.732,22.054,22.054,0,0,1,3.549,14.074v8.875c-3.423,14.962-9.633,23.076-13.947,23.076-2.914,0-4.943-3.3-4.943-10.524V115.585a69.226,69.226,0,0,1-27.894,7.558v11.434c.032,1.134,0,2.106,0,2.808v16.483c0,16.357,1.269,32.586,17.75,32.586,14.708,0,25.1-21.174,29.034-35.121V170.6a22.277,22.277,0,0,0,.989,7.176,7.161,7.161,0,0,0,4.044,4.591c.05.018.1.039.156.057l.114.036C433.191,183.155,435.715,182.325,442.53,179.868Z" fill="#f4d3d6"/>
    <path d="M597.091,84.264c-.128-9.889-8.621-15.087-16.736-15.087S564.38,74,564.38,84.264a10.482,10.482,0,0,0,6.212,9.517c-.252-5.46,3.549-8.5,7.1-8.5s7.1,2.791,7.1,8.877c0,8.494-13.185,21.427-37.657,21.172v-13.8l.056-7.824.011-1.4.028-4,.065-4.7c0-.351-.015-.682-.023-1.022v-.147c-.1-4.015-.34-7.218-.624-9.639h0q-.088-.766-.18-1.431c-2.028-12.62-8.753-35.858-31.22-50.833q-21.461-14.3-54.324-14.446V6.071H460a231.02,231.02,0,0,0-38.136,3.715C365.369,19.8,317.478,47.218,317.478,47.218h0c-49.943,25.4-95.6,54.372-143.425,75.955V92.884h-1.268c-2.663,15.087-19.4,21.684-32.2,22.7,3.421,2.663,5.577,9,5.577,14.96v4.194q-9.73,3.646-19.656,6.759c-11.033-15.086-26.774-26.677-26.521-38.973.253-6.211,4.184-9.382,8.493-9.382,5.327,0,10.271,4.184,10.271,11.536a9.2,9.2,0,0,1-2.917,6.975,10.621,10.621,0,0,0,8.622,4.056c5.46,0,11.157-3.675,11.031-9.889,0-9.507-12.426-14.453-25.865-14.453-16.355,0-34.232,7.227-34.232,23.076,0,11.764,7.8,23.027,16.121,34.476-40.509,2.449-65.566-21.144-73-48.255C9.422,67.5,31.985,39.2,56.09,32.582c16.925-4.639,34.976.86,43.809,23.028,4.162,11.154,11.206,14.751,16.848,13.2,5.126-1.4,9.2-8.668,6.54-18.385-7.529-27.453-32.517-34.123-56.1-27.666-30.776,8.445-60.364,39.3-49.551,78.744,7.766,28.329,33.852,52.957,75.817,50.077,8.832,12.114,17.621,24.493,17.809,37.909.127,11.791-9.89,19.271-21.046,19.271-13.059,0-23.712-9.129-23.712-21.046,0-8.242,5.324-12.807,11.283-12.807,5.325,0,11.03,4.184,10.777,12.552A19.673,19.673,0,0,0,93.5,174.657c0-9.761-7.987-18.383-19.779-18.383-11.917,0-23.713,7.989-23.713,22.821,0,18.764,18,31.825,39.313,31.825C112.4,210.539,137,195.07,137,169.461c0-9.649-3.667-17.966-8.694-25.419q9.02-2.844,17.858-6.138v37.262c0,18.762,12.552,32.077,29.542,32.077,12.168,0,22.061-4.438,35.5-4.438,13.693,0,20.281,8.494,20.281,16.862a16.4,16.4,0,0,1-3.8,10.4c13.572,5.322,29.411-.509,29.411-15.6,0-10.522-9-21.934-27.257-21.934-13.694,0-31.57,10.27-43.489,10.27-7.352,0-12.3-4.184-12.3-16.354V126.335c56.122-25.45,108.762-61.465,168.622-89.784C421.97,3.421,479.808-1.67,514.573,21.5c20.55,13.687,27.73,34.426,30.238,47.253.041.268,2.644,18.112.053,28.285-.156.624-.34,1.2-.538,1.76-.041.12-.08.243-.12.361-4.056,11.73-11.493,16.559-20.034,18.112a57.956,57.956,0,0,1-15.405-.035c-.737-.119-1.456-.23-2.152-.333h-.035l-.2-.029c-2.9-.422-5.418-.7-7.332-.886l-.115-.013c-2.312-.22-3.7-.295-3.7-.295h-.312c-1.042-.042-2.036-.056-3-.053-.289,0-.576,0-.858.009h-.141c-.444.01-.878.022-1.306.039l-.273.013c-1.351.059-2.617.156-3.79.285h0a2.055,2.055,0,0,0-.228.03c-.072.008-.156.022-.228.03q-.736.084-1.462.193c-.3.044-.605.089-.894.137a41.309,41.309,0,0,0-5.628,1.32c-.71.226-1.284.435-1.741.615-.434.17-.747.312-.955.406-1.072.416-2.142.839-3.128,1.326a35.127,35.127,0,0,0-3.834,2.184,24.929,24.929,0,0,0-6.479,5.948,14.281,14.281,0,0,0-1.573,2.7c-.036.08-.081.156-.114.241-.01.029-.028.057-.04.087a18.686,18.686,0,0,0-1.181,6.014c-.012.273-.025.544-.028.813,0,.312.014.608.019.914v.12c0,.165.018.329.021.5,0,.193,0,.4.013.586.009.137,0,.261.009.4h.017l.01.12a28.9,28.9,0,0,0,.51,3.887c.081.4.156.81.254,1.214l.075.323c.1.4.167.647.167.647l.014-.015c5.928,21.84,34.4,42.6,34.282,67.025,0,.228-.035.441-.044.666A17.363,17.363,0,0,1,487,227.325a23.751,23.751,0,0,1-15.883,5.045,26.256,26.256,0,0,1-15.973-5.494,19.308,19.308,0,0,1-7.228-14.794,15.873,15.873,0,0,1,1.092-5.883c1.84-4.6,6-7.619,12.228-6.8a17.073,17.073,0,0,0-.145-5.651,12.319,12.319,0,0,0-.882-2.72,10.828,10.828,0,0,0-10.13-6.208,18.643,18.643,0,0,0-13.7,5.578,16.9,16.9,0,0,0-3.56,5.979,20.67,20.67,0,0,0-1.123,6.827c-.128,14.58,13.058,31.949,38.542,31.949,22.109,0,46.347-13.97,49.06-37.657a38.91,38.91,0,0,0,.26-4.436c0-28.019-37.021-51.6-36.641-66.31a11.1,11.1,0,0,1,1.112-4.736c.061-.12.122-.241.185-.358a8.862,8.862,0,0,1,.807-1.221l.05-.061a8.13,8.13,0,0,1,.869-.872,9.042,9.042,0,0,1,4.165-2.008c.253-.04.5-.109.757-.128.226-.028.4-.042.552-.051h.162c11.438-.552,27.538,7.086,27.538,21.232v23.712c0,13.821,10.777,22.443,32.711,22.443v-.381c-3.551-3.17-4.818-10.017-4.818-19.4l.125-46.4C571.35,118.117,597.464,105.056,597.091,84.264Z" fill="#f4d3d6"/>
    <path d="M447.612,38.939c-6.465-1.313-7.889-2.725-9.217-9.135a.274.274,0,0,0-.539,0c-1.328,6.41-2.752,7.822-9.215,9.135a.273.273,0,0,0,0,.539c6.463,1.313,7.887,2.745,9.215,9.135a.274.274,0,0,0,.539,0c1.328-6.4,2.752-7.822,9.217-9.135a.274.274,0,0,0,0-.539Z" fill="#f4d3d6"/>
    <path d="M474.513,71.652c4.6,11.243.468,11.244,5.052,0a2.767,2.767,0,0,1,1.511-1.5c11.189-4.482,11.309-.583.423-4.836a3.775,3.775,0,0,1-1.917-1.647c-4.563-11.218-.468-11.243-5.069-.008a2.773,2.773,0,0,1-1.508,1.5c-11.332,4.545-11.332.449,0,4.992A2.777,2.777,0,0,1,474.513,71.652Z" fill="#f4d3d6"/>
    <path d="M437.673,84.843a.189.189,0,0,0-.373,0c-.9,4.376-1.9,5.346-6.309,6.24a.2.2,0,0,0,0,.384c4.412.894,5.408,1.872,6.309,6.24a.189.189,0,0,0,.373,0c.9-4.368,1.894-5.346,6.307-6.24a.2.2,0,0,0,0-.384C439.567,90.189,438.573,89.221,437.673,84.843Z" fill="#f4d3d6"/>
    <path d="M143.435,232.5c-5.762-23.282-1.167-24.223-6.092-2.819a4.657,4.657,0,0,1-3.495,3.482c-20.709,4.68-20.708.7,0,5.382a4.653,4.653,0,0,1,3.495,3.482c4.717,20.483.7,20.483,5.418,0a4.657,4.657,0,0,1,3.494-3.482C167.848,233.653,166.907,238.2,143.435,232.5Z" fill="#f4d3d6"/>
    <path d="M169.339,276.621c-5.176-12.042-.936-12.629-5.215-1.76a4.383,4.383,0,0,1-2.5,2.473c-10.4,4.013-10.4.432,0,4.444a4.38,4.38,0,0,1,2.5,2.473c4.056,10.311.451,10.313,4.489,0a4.386,4.386,0,0,1,2.5-2.479C182.073,277.55,181.484,281.753,169.339,276.621Z" fill="#f4d3d6"/>
    <path d="M154.4,69.457c1.4-11.724,2.525-12.858,14.352-14.231C156.927,53.833,155.806,52.718,154.4,41c-1.4,11.722-2.531,12.837-14.353,14.23C151.871,56.6,152.994,57.733,154.4,69.457Z" fill="#f4d3d6"/>
    <path d="M198.582,246.571c-.312-1.146-.771-2.535-1.42-4.243h-.1c-.649,1.708-1.114,3.1-1.42,4.243a2.724,2.724,0,0,1-1.928,1.929c-1.167.312-2.574.78-4.3,1.43v.081c1.729.649,3.136,1.123,4.3,1.431a2.726,2.726,0,0,1,1.928,1.928c.312,1.147.771,2.535,1.42,4.243h.1a44.255,44.255,0,0,0,1.418-4.243,2.73,2.73,0,0,1,1.93-1.928c1.167-.312,2.572-.78,4.3-1.431v-.081c-1.729-.649-3.134-1.123-4.3-1.43A2.722,2.722,0,0,1,198.582,246.571Z" fill="#f4d3d6"/>
    <path d="M189.719,81.545c.312,1.109.755,2.439,1.368,4.056h.1c.613-1.614,1.062-2.943,1.368-4.056a3.082,3.082,0,0,1,2.168-2.168c1.13-.312,2.478-.766,4.112-1.381v-.081c-1.634-.615-2.982-1.072-4.112-1.38a3.083,3.083,0,0,1-2.168-2.169c-.312-1.109-.755-2.438-1.368-4.056h-.1c-.613,1.615-1.062,2.944-1.368,4.056a3.086,3.086,0,0,1-2.17,2.169c-1.128.312-2.476.765-4.112,1.38V78c1.636.615,2.983,1.072,4.112,1.381A3.084,3.084,0,0,1,189.719,81.545Z" fill="#f4d3d6"/>
    <path d="M297.046,219.1a84.594,84.594,0,0,0-39.169-33.75l.02-.02s-.142-.046-.337-.117-.409-.169-.691-.3a7.487,7.487,0,0,1-4.313-5.5c-.113-1.56-.119-3.5-.119-6.269v-35.5c0-15.6-17.369-23.328-33.725-23.328-14.327,0-27.639,5.833-27.639,17.5,0,6.845,5.958,9.763,12.424,9.763,4.693,0,9.516-1.9,11.919-5.707a10.581,10.581,0,0,1-5.072-9.128,10.268,10.268,0,0,1,10-10.526c.215-.006.43,0,.645,0a9.36,9.36,0,0,1,9.764,8.938c.012.274.012.549,0,.823,0,13.185-12.427,17.244-24.976,21.046-12.932,3.805-25.36,7.861-25.36,21.429,0,11.411,11.031,17.876,22.822,17.876,6.176,0,13.343-2.666,21.528-4.3a49.626,49.626,0,0,1,20.636,1.436q1.461.4,2.975.912c.273.092.546.183.819.276a87.478,87.478,0,0,1,15.2,6.955,85.986,85.986,0,0,1,31.451,31.62c7.54,13.224,11.908,28.845,10.13,44.121-2.245,19.279-16.518,37.776-37.909,34.384a31.408,31.408,0,0,1-23.1-16.879c-.994-3.12-.079-6.605,3.35-9.638,7.9-6.986,19.066-3.454,25.46-9.109,5.265-4.657,6.437-12.168.8-18.8-5.546-6.27-15.81-9.033-26.591.5A27.77,27.77,0,0,0,239,263.349l-.037.022s-4.293,16.608,7.422,29.5l-.02-.051a30.6,30.6,0,0,0,2.094,2.315c9.455,9.348,22.28,10.866,33.589,6.775a4.279,4.279,0,0,0,.468-.156q.7-.273,1.4-.572c.263-.113.53-.236.8-.356.578-.259,1.15-.527,1.716-.818.117-.057.231-.112.35-.173q1.134-.6,2.235-1.27c.033-.02.067-.035.1-.056l-.039.021.081-.05-.042.029c.133-.075.254-.156.385-.237.086-.05.167-.1.253-.156a29.8,29.8,0,0,0,4.591-3.359c.08-.067.156-.123.237-.19a35.428,35.428,0,0,0,5.6-6.21c.42-.576.8-1.119,1.139-1.618.226-.337.455-.674.672-1.016s.409-.642.557-.884c.269-.437.418-.7.418-.7l-.087.1a44.946,44.946,0,0,0,5.132-14,54.413,54.413,0,0,0-.791-25.887A85.093,85.093,0,0,0,297.046,219.1Zm-72.5-41.421c-7.226.468-16.736-2.349-17.37-13.386-.38-10.921,9.516-17.259,17.37-22.658Z" fill="#f4d3d6"/>
    <g>
      <path d="M320.373,257.014V271.2a10.326,10.326,0,0,1-.944,5.672h8.437a11.426,11.426,0,0,1-.944-5.672v-6.839h3.019a6.95,6.95,0,0,1,5.674,3.056V260.8a6.944,6.944,0,0,1-5.674,3.058h-3.019V252h1.56c2.546,0,4.437.689,8.182,4.875l2.8-5.529H319.429A10.325,10.325,0,0,1,320.373,257.014Z" fill="#f4d3d6"/>
      <path d="M361.388,276.184v-19.17a11.4,11.4,0,0,1,.947-5.671H353.9a10.324,10.324,0,0,1,.947,5.671V271.2a10.319,10.319,0,0,1-.947,5.672h18.768l1.418-6.363c-2.364,2.145-6.875,5.674-9.966,5.674Z" fill="#f4d3d6"/>
      <path d="M398.548,250.724c-9.348,0-14.476,6.875-14.476,13.6,0,6.693,5.128,13.167,14.476,13.167s14.438-6.474,14.438-13.167C412.986,257.6,407.894,250.724,398.548,250.724Zm0,26.224c-4.546,0-6.84-6.221-6.84-12.731,0-6.473,2.294-12.948,6.84-12.948s6.836,6.475,6.836,12.948S403.094,276.948,398.548,276.948Z" fill="#f4d3d6"/>
      <path d="M474.774,256.361l2.51-5.018H457.936a10.324,10.324,0,0,1,.947,5.671V271.2a10.319,10.319,0,0,1-.947,5.672H477.1l-1.56-5.273a10.32,10.32,0,0,1-9.2,4.766h-.915V264.4h2.328a6.977,6.977,0,0,1,5.675,2.981V260.8a6.968,6.968,0,0,1-5.675,2.985h-2.328V251.96A11.351,11.351,0,0,1,474.774,256.361Z" fill="#f4d3d6"/>
      <path d="M533.671,254.671a3.5,3.5,0,0,1,3.667-3.32c.051,0,.1.006.152.011,3.418,0,6.619,2.545,7.346,7.454l.582-.034v-5.566a13.124,13.124,0,0,0-8.256-2.511c-4.728,0-9.457,2.292-9.457,6.584,0,6.912,13.058,11.419,13.276,16.366.072,2.073-1.491,2.983-3.276,2.983-2.909,0-6.4-2.808-8.182-6.729l-2.546,2.292a9.621,9.621,0,0,0,9.237,5.3c5.2,0,10.184-2.365,10.184-7.165C546.473,263.836,533.671,260.418,533.671,254.671Z" fill="#f4d3d6"/>
      <path d="M417.858,255.15a16.024,16.024,0,0,0-2.794-3.807h8.049a2.1,2.1,0,0,0-.106,2.1l6.78,16.644,3.88-8.666-1.306-3.41c-1.628-4.095-2.249-5.11-3.695-6.6h7.5a10.322,10.322,0,0,0,.649,3.735l5.334,14.578,4.524-11.784a10.3,10.3,0,0,0,.293-6.529h4.1a15.507,15.507,0,0,0-3.446,5.616l-7.644,19.838h-.328l-5.764-14.8-6.49,14.8h-.366Z" fill="#f4d3d6"/>
      <path d="M491.477,271.2V257.017a10.344,10.344,0,0,0-.945-5.674h12.91c4.837,0,7.308,3.092,7.308,6.183,0,2.808-2.108,5.638-6.364,5.928v.109c6.073,0,6.654,6.983,7.527,9.819a6.949,6.949,0,0,0,1.857,3.491l-3.93-.073c-5.635-.036-1.781-12.911-9.384-12.911h-3.89V271.2a11.386,11.386,0,0,0,.948,5.673h-6.982A10.339,10.339,0,0,0,491.477,271.2Zm8.435-7.957a5.819,5.819,0,0,0,6.137-5.485c.007-.111.01-.222.01-.334,0-2.8-2.036-5.563-6.365-5.563h-3.12v11.42Z" fill="#f4d3d6"/>
    </g>
  </g>
</svg>
